<svg width="58" height="57" viewBox="0 0 58 57" fill="none" xmlns="http://www.w3.org/2000/svg">
<g filter="url(#filter0_i_1_47)">
<path d="M34.1739 4.65438C32.3704 4.22648 30.4889 4 28.5546 4C23.6689 4 19.1207 5.44481 15.3139 7.93046L21.8701 16.3724L17.9075 19.4498L11.4172 11.0927C7.02295 15.4819 4.30457 21.5485 4.30457 28.25C4.30457 28.5902 4.31151 28.9287 4.32539 29.2654L14.9647 28.469L15.3392 33.4723L5.05064 34.2424C6.86259 41.3709 11.8322 47.2389 18.3827 50.2699L21.6223 40.789L26.37 42.4112L23.1308 51.8912C24.8745 52.2896 26.69 52.5 28.5546 52.5C33.7197 52.5 38.5078 50.8851 42.4413 48.1327L36.0804 40.7141L39.8893 37.4483L46.2341 44.8482C50.3087 40.5099 52.8046 34.6714 52.8046 28.25H42.7701V23.2328H52.2849C50.7094 15.7433 45.6777 9.52647 38.9358 6.32815L36.7863 15.5724L31.8994 14.4361L34.1739 4.65438Z" fill="#353235"/>
</g>
<path d="M28.5546 2C30.6455 2 32.682 2.24448 34.6356 2.70801L36.5731 3.16797L36.1219 5.10742L34.2997 12.9404L35.2909 13.1709L36.9882 5.875L37.5497 3.45703L39.7928 4.52148C47.0882 7.98236 52.5354 14.7086 54.2421 22.8213L54.7499 25.2324H44.7704V26.25H54.8046V28.25C54.8046 35.2 52.1013 41.5234 47.6923 46.2178L46.1659 47.8418L44.7157 46.1504L39.6727 40.2686L38.9003 40.9307L43.9598 46.8311L45.3964 48.5059L43.5878 49.7715C39.3291 52.7514 34.143 54.5 28.5546 54.5C26.5392 54.5 24.5743 54.2724 22.6854 53.8408L20.5204 53.3467L21.2382 51.2441L23.83 43.6562L22.8671 43.3281L20.2753 50.917L19.5575 53.0176L17.5428 52.085C10.454 48.8048 5.07477 42.4561 3.11218 34.7354L2.52527 32.4258L4.90125 32.248L13.1952 31.626L13.119 30.6123L4.47449 31.2598L2.41199 31.4141L2.32703 29.3477C2.31201 28.9833 2.30457 28.6173 2.30457 28.25C2.30457 20.9963 5.24932 14.4267 10.0038 9.67773L11.6073 8.07617L12.9969 9.86621L18.2596 16.6426L19.0634 16.0195L13.7343 9.15723L12.4032 7.44238L14.2206 6.25586C18.3426 3.5644 23.2689 2 28.5546 2Z" stroke="white" stroke-width="4"/>
<defs>
<filter id="filter0_i_1_47" x="0" y="0" width="57.2139" height="64.5" filterUnits="userSpaceOnUse" color-interpolation-filters="sRGB">
<feFlood flood-opacity="0" result="BackgroundImageFix"/>
<feBlend mode="normal" in="SourceGraphic" in2="BackgroundImageFix" result="shape"/>
<feColorMatrix in="SourceAlpha" type="matrix" values="0 0 0 0 0 0 0 0 0 0 0 0 0 0 0 0 0 0 127 0" result="hardAlpha"/>
<feOffset dy="16"/>
<feGaussianBlur stdDeviation="4"/>
<feComposite in2="hardAlpha" operator="arithmetic" k2="-1" k3="1"/>
<feColorMatrix type="matrix" values="0 0 0 0 0 0 0 0 0 0 0 0 0 0 0 0 0 0 0.9 0"/>
<feBlend mode="normal" in2="shape" result="effect1_innerShadow_1_47"/>
</filter>
</defs>
</svg>
